<svg aria-hidden="true" style="position: absolute; width: 0; height: 0; overflow: hidden;" version="1.1" xmlns="http://www.w3.org/2000/svg" xmlns:xlink="http://www.w3.org/1999/xlink">
<defs>
<symbol id="icon-plus" viewBox="0 0 22 28">
<title>plus</title>
<path d="M22 11.5v3c0 0.828-0.672 1.5-1.5 1.5h-6.5v6.5c0 0.828-0.672 1.5-1.5 1.5h-3c-0.828 0-1.5-0.672-1.5-1.5v-6.5h-6.5c-0.828 0-1.5-0.672-1.5-1.5v-3c0-0.828 0.672-1.5 1.5-1.5h6.5v-6.5c0-0.828 0.672-1.5 1.5-1.5h3c0.828 0 1.5 0.672 1.5 1.5v6.5h6.5c0.828 0 1.5 0.672 1.5 1.5z"></path>
</symbol>
<symbol id="icon-minus" viewBox="0 0 22 28">
<title>minus</title>
<path d="M22 11.5v3c0 0.828-0.672 1.5-1.5 1.5h-19c-0.828 0-1.5-0.672-1.5-1.5v-3c0-0.828 0.672-1.5 1.5-1.5h19c0.828 0 1.5 0.672 1.5 1.5z"></path>
</symbol>
<symbol id="icon-search" viewBox="0 0 26 28">
<title>search</title>
<path d="M18 13c0-3.859-3.141-7-7-7s-7 3.141-7 7 3.141 7 7 7 7-3.141 7-7zM26 26c0 1.094-0.906 2-2 2-0.531 0-1.047-0.219-1.406-0.594l-5.359-5.344c-1.828 1.266-4.016 1.937-6.234 1.937-6.078 0-11-4.922-11-11s4.922-11 11-11 11 4.922 11 11c0 2.219-0.672 4.406-1.937 6.234l5.359 5.359c0.359 0.359 0.578 0.875 0.578 1.406z"></path>
</symbol>
<symbol id="icon-envelope-o" viewBox="0 0 28 28">
<title>envelope-o</title>
<path d="M26 23.5v-12c-0.328 0.375-0.688 0.719-1.078 1.031-2.234 1.719-4.484 3.469-6.656 5.281-1.172 0.984-2.625 2.188-4.25 2.188h-0.031c-1.625 0-3.078-1.203-4.25-2.188-2.172-1.813-4.422-3.563-6.656-5.281-0.391-0.313-0.75-0.656-1.078-1.031v12c0 0.266 0.234 0.5 0.5 0.5h23c0.266 0 0.5-0.234 0.5-0.5zM26 7.078c0-0.391 0.094-1.078-0.5-1.078h-23c-0.266 0-0.5 0.234-0.5 0.5 0 1.781 0.891 3.328 2.297 4.438 2.094 1.641 4.188 3.297 6.266 4.953 0.828 0.672 2.328 2.109 3.422 2.109h0.031c1.094 0 2.594-1.437 3.422-2.109 2.078-1.656 4.172-3.313 6.266-4.953 1.016-0.797 2.297-2.531 2.297-3.859zM28 6.5v17c0 1.375-1.125 2.5-2.5 2.5h-23c-1.375 0-2.5-1.125-2.5-2.5v-17c0-1.375 1.125-2.5 2.5-2.5h23c1.375 0 2.5 1.125 2.5 2.5z"></path>
</symbol>
<symbol id="icon-heart" viewBox="0 0 28 28">
<title>heart</title>
<path d="M14 26c-0.25 0-0.5-0.094-0.688-0.281l-9.75-9.406c-0.125-0.109-3.563-3.25-3.563-7 0-4.578 2.797-7.313 7.469-7.313 2.734 0 5.297 2.156 6.531 3.375 1.234-1.219 3.797-3.375 6.531-3.375 4.672 0 7.469 2.734 7.469 7.313 0 3.75-3.437 6.891-3.578 7.031l-9.734 9.375c-0.187 0.187-0.438 0.281-0.688 0.281z"></path>
</symbol>
<symbol id="icon-star" viewBox="0 0 26 28">
<title>star</title>
<path d="M26 10.109c0 0.281-0.203 0.547-0.406 0.75l-5.672 5.531 1.344 7.812c0.016 0.109 0.016 0.203 0.016 0.313 0 0.406-0.187 0.781-0.641 0.781-0.219 0-0.438-0.078-0.625-0.187l-7.016-3.687-7.016 3.687c-0.203 0.109-0.406 0.187-0.625 0.187-0.453 0-0.656-0.375-0.656-0.781 0-0.109 0.016-0.203 0.031-0.313l1.344-7.812-5.688-5.531c-0.187-0.203-0.391-0.469-0.391-0.75 0-0.469 0.484-0.656 0.875-0.719l7.844-1.141 3.516-7.109c0.141-0.297 0.406-0.641 0.766-0.641s0.625 0.344 0.766 0.641l3.516 7.109 7.844 1.141c0.375 0.063 0.875 0.25 0.875 0.719z"></path>
</symbol>
<symbol id="icon-star-o" viewBox="0 0 26 28">
<title>star-o</title>
<path d="M17.766 15.687l4.781-4.641-6.594-0.969-2.953-5.969-2.953 5.969-6.594 0.969 4.781 4.641-1.141 6.578 5.906-3.109 5.891 3.109zM26 10.109c0 0.281-0.203 0.547-0.406 0.75l-5.672 5.531 1.344 7.812c0.016 0.109 0.016 0.203 0.016 0.313 0 0.422-0.187 0.781-0.641 0.781-0.219 0-0.438-0.078-0.625-0.187l-7.016-3.687-7.016 3.687c-0.203 0.109-0.406 0.187-0.625 0.187-0.453 0-0.656-0.375-0.656-0.781 0-0.109 0.016-0.203 0.031-0.313l1.344-7.812-5.688-5.531c-0.187-0.203-0.391-0.469-0.391-0.75 0-0.469 0.484-0.656 0.875-0.719l7.844-1.141 3.516-7.109c0.141-0.297 0.406-0.641 0.766-0.641s0.625 0.344 0.766 0.641l3.516 7.109 7.844 1.141c0.375 0.063 0.875 0.25 0.875 0.719z"></path>
</symbol>
<symbol id="icon-user" viewBox="0 0 20 28">
<title>user</title>
<path d="M20 21.859c0 2.281-1.5 4.141-3.328 4.141h-13.344c-1.828 0-3.328-1.859-3.328-4.141 0-4.109 1.016-8.859 5.109-8.859 1.266 1.234 2.984 2 4.891 2s3.625-0.766 4.891-2c4.094 0 5.109 4.75 5.109 8.859zM16 8c0 3.313-2.688 6-6 6s-6-2.688-6-6 2.688-6 6-6 6 2.688 6 6z"></path>
</symbol>
<symbol id="icon-th-large" viewBox="0 0 26 28">
<title>th-large</title>
<path d="M12 16v6c0 1.094-0.906 2-2 2h-8c-1.094 0-2-0.906-2-2v-6c0-1.094 0.906-2 2-2h8c1.094 0 2 0.906 2 2zM12 4v6c0 1.094-0.906 2-2 2h-8c-1.094 0-2-0.906-2-2v-6c0-1.094 0.906-2 2-2h8c1.094 0 2 0.906 2 2zM26 16v6c0 1.094-0.906 2-2 2h-8c-1.094 0-2-0.906-2-2v-6c0-1.094 0.906-2 2-2h8c1.094 0 2 0.906 2 2zM26 4v6c0 1.094-0.906 2-2 2h-8c-1.094 0-2-0.906-2-2v-6c0-1.094 0.906-2 2-2h8c1.094 0 2 0.906 2 2z"></path>
</symbol>
<symbol id="icon-th" viewBox="0 0 28 28">
<title>th</title>
<path d="M8 19.5v3c0 0.828-0.672 1.5-1.5 1.5h-5c-0.828 0-1.5-0.672-1.5-1.5v-3c0-0.828 0.672-1.5 1.5-1.5h5c0.828 0 1.5 0.672 1.5 1.5zM8 11.5v3c0 0.828-0.672 1.5-1.5 1.5h-5c-0.828 0-1.5-0.672-1.5-1.5v-3c0-0.828 0.672-1.5 1.5-1.5h5c0.828 0 1.5 0.672 1.5 1.5zM18 19.5v3c0 0.828-0.672 1.5-1.5 1.5h-5c-0.828 0-1.5-0.672-1.5-1.5v-3c0-0.828 0.672-1.5 1.5-1.5h5c0.828 0 1.5 0.672 1.5 1.5zM8 3.5v3c0 0.828-0.672 1.5-1.5 1.5h-5c-0.828 0-1.5-0.672-1.5-1.5v-3c0-0.828 0.672-1.5 1.5-1.5h5c0.828 0 1.5 0.672 1.5 1.5zM18 11.5v3c0 0.828-0.672 1.5-1.5 1.5h-5c-0.828 0-1.5-0.672-1.5-1.5v-3c0-0.828 0.672-1.5 1.5-1.5h5c0.828 0 1.5 0.672 1.5 1.5zM28 19.5v3c0 0.828-0.672 1.5-1.5 1.5h-5c-0.828 0-1.5-0.672-1.5-1.5v-3c0-0.828 0.672-1.5 1.5-1.5h5c0.828 0 1.5 0.672 1.5 1.5zM18 3.5v3c0 0.828-0.672 1.5-1.5 1.5h-5c-0.828 0-1.5-0.672-1.5-1.5v-3c0-0.828 0.672-1.5 1.5-1.5h5c0.828 0 1.5 0.672 1.5 1.5zM28 11.5v3c0 0.828-0.672 1.5-1.5 1.5h-5c-0.828 0-1.5-0.672-1.5-1.5v-3c0-0.828 0.672-1.5 1.5-1.5h5c0.828 0 1.5 0.672 1.5 1.5zM28 3.5v3c0 0.828-0.672 1.5-1.5 1.5h-5c-0.828 0-1.5-0.672-1.5-1.5v-3c0-0.828 0.672-1.5 1.5-1.5h5c0.828 0 1.5 0.672 1.5 1.5z"></path>
</symbol>
<symbol id="icon-check" viewBox="0 0 28 28">
<title>check</title>
<path d="M26.109 8.844c0 0.391-0.156 0.781-0.438 1.062l-13.438 13.438c-0.281 0.281-0.672 0.438-1.062 0.438s-0.781-0.156-1.062-0.438l-7.781-7.781c-0.281-0.281-0.438-0.672-0.438-1.062s0.156-0.781 0.438-1.062l2.125-2.125c0.281-0.281 0.672-0.438 1.062-0.438s0.781 0.156 1.062 0.438l4.594 4.609 10.25-10.266c0.281-0.281 0.672-0.438 1.062-0.438s0.781 0.156 1.062 0.438l2.125 2.125c0.281 0.281 0.438 0.672 0.438 1.062z"></path>
</symbol>
<symbol id="icon-close" viewBox="0 0 22 28">
<title>close</title>
<path d="M20.281 20.656c0 0.391-0.156 0.781-0.438 1.062l-2.125 2.125c-0.281 0.281-0.672 0.438-1.062 0.438s-0.781-0.156-1.062-0.438l-4.594-4.594-4.594 4.594c-0.281 0.281-0.672 0.438-1.062 0.438s-0.781-0.156-1.062-0.438l-2.125-2.125c-0.281-0.281-0.438-0.672-0.438-1.062s0.156-0.781 0.438-1.062l4.594-4.594-4.594-4.594c-0.281-0.281-0.438-0.672-0.438-1.062s0.156-0.781 0.438-1.062l2.125-2.125c0.281-0.281 0.672-0.438 1.062-0.438s0.781 0.156 1.062 0.438l4.594 4.594 4.594-4.594c0.281-0.281 0.672-0.438 1.062-0.438s0.781 0.156 1.062 0.438l2.125 2.125c0.281 0.281 0.438 0.672 0.438 1.062s-0.156 0.781-0.438 1.062l-4.594 4.594 4.594 4.594c0.281 0.281 0.438 0.672 0.438 1.062z"></path>
</symbol>
<symbol id="icon-cog" viewBox="0 0 24 28">
<title>cog</title>
<path d="M16 14c0-2.203-1.797-4-4-4s-4 1.797-4 4 1.797 4 4 4 4-1.797 4-4zM24 12.297v3.469c0 0.234-0.187 0.516-0.438 0.562l-2.891 0.438c-0.172 0.5-0.359 0.969-0.609 1.422 0.531 0.766 1.094 1.453 1.672 2.156 0.094 0.109 0.156 0.25 0.156 0.391s-0.047 0.25-0.141 0.359c-0.375 0.5-2.484 2.797-3.016 2.797-0.141 0-0.281-0.063-0.406-0.141l-2.156-1.687c-0.453 0.234-0.938 0.438-1.422 0.594-0.109 0.953-0.203 1.969-0.453 2.906-0.063 0.25-0.281 0.438-0.562 0.438h-3.469c-0.281 0-0.531-0.203-0.562-0.469l-0.438-2.875c-0.484-0.156-0.953-0.344-1.406-0.578l-2.203 1.672c-0.109 0.094-0.25 0.141-0.391 0.141s-0.281-0.063-0.391-0.172c-0.828-0.75-1.922-1.719-2.578-2.625-0.078-0.109-0.109-0.234-0.109-0.359 0-0.141 0.047-0.25 0.125-0.359 0.531-0.719 1.109-1.406 1.641-2.141-0.266-0.5-0.484-1.016-0.641-1.547l-2.859-0.422c-0.266-0.047-0.453-0.297-0.453-0.562v-3.469c0-0.234 0.187-0.516 0.422-0.562l2.906-0.438c0.156-0.5 0.359-0.969 0.609-1.437-0.531-0.75-1.094-1.453-1.672-2.156-0.094-0.109-0.156-0.234-0.156-0.375s0.063-0.25 0.141-0.359c0.375-0.516 2.484-2.797 3.016-2.797 0.141 0 0.281 0.063 0.406 0.156l2.156 1.672c0.453-0.234 0.938-0.438 1.422-0.594 0.109-0.953 0.203-1.969 0.453-2.906 0.063-0.25 0.281-0.438 0.562-0.438h3.469c0.281 0 0.531 0.203 0.562 0.469l0.438 2.875c0.484 0.156 0.953 0.344 1.406 0.578l2.219-1.672c0.094-0.094 0.234-0.141 0.375-0.141s0.281 0.063 0.391 0.156c0.828 0.766 1.922 1.734 2.578 2.656 0.078 0.094 0.109 0.219 0.109 0.344 0 0.141-0.047 0.25-0.125 0.359-0.531 0.719-1.109 1.406-1.641 2.141 0.266 0.5 0.484 1.016 0.641 1.531l2.859 0.438c0.266 0.047 0.453 0.297 0.453 0.562z"></path>
</symbol>
<symbol id="icon-trash-o" viewBox="0 0 22 28">
<title>trash-o</title>
<path d="M8 11.5v9c0 0.281-0.219 0.5-0.5 0.5h-1c-0.281 0-0.5-0.219-0.5-0.5v-9c0-0.281 0.219-0.5 0.5-0.5h1c0.281 0 0.5 0.219 0.5 0.5zM12 11.5v9c0 0.281-0.219 0.5-0.5 0.5h-1c-0.281 0-0.5-0.219-0.5-0.5v-9c0-0.281 0.219-0.5 0.5-0.5h1c0.281 0 0.5 0.219 0.5 0.5zM16 11.5v9c0 0.281-0.219 0.5-0.5 0.5h-1c-0.281 0-0.5-0.219-0.5-0.5v-9c0-0.281 0.219-0.5 0.5-0.5h1c0.281 0 0.5 0.219 0.5 0.5zM18 22.813v-14.812h-14v14.812c0 0.75 0.422 1.188 0.5 1.188h13c0.078 0 0.5-0.438 0.5-1.188zM7.5 6h7l-0.75-1.828c-0.047-0.063-0.187-0.156-0.266-0.172h-4.953c-0.094 0.016-0.219 0.109-0.266 0.172zM22 6.5v1c0 0.281-0.219 0.5-0.5 0.5h-1.5v14.812c0 1.719-1.125 3.187-2.5 3.187h-13c-1.375 0-2.5-1.406-2.5-3.125v-14.875h-1.5c-0.281 0-0.5-0.219-0.5-0.5v-1c0-0.281 0.219-0.5 0.5-0.5h4.828l1.094-2.609c0.313-0.766 1.25-1.391 2.078-1.391h5c0.828 0 1.766 0.625 2.078 1.391l1.094 2.609h4.828c0.281 0 0.5 0.219 0.5 0.5z"></path>
</symbol>
<symbol id="icon-home" viewBox="0 0 26 28">
<title>home</title>
<path d="M22 15.5v7.5c0 0.547-0.453 1-1 1h-6v-6h-4v6h-6c-0.547 0-1-0.453-1-1v-7.5c0-0.031 0.016-0.063 0.016-0.094l8.984-7.406 8.984 7.406c0.016 0.031 0.016 0.063 0.016 0.094zM25.484 14.422l-0.969 1.156c-0.078 0.094-0.203 0.156-0.328 0.172h-0.047c-0.125 0-0.234-0.031-0.328-0.109l-10.813-9.016-10.813 9.016c-0.109 0.078-0.234 0.125-0.375 0.109-0.125-0.016-0.25-0.078-0.328-0.172l-0.969-1.156c-0.172-0.203-0.141-0.531 0.063-0.703l11.234-9.359c0.656-0.547 1.719-0.547 2.375 0l3.813 3.187v-3.047c0-0.281 0.219-0.5 0.5-0.5h3c0.281 0 0.5 0.219 0.5 0.5v6.375l3.422 2.844c0.203 0.172 0.234 0.5 0.063 0.703z"></path>
</symbol>
<symbol id="icon-pencil" viewBox="0 0 24 28">
<title>pencil</title>
<path d="M5.672 24l1.422-1.422-3.672-3.672-1.422 1.422v1.672h2v2h1.672zM13.844 9.5c0-0.203-0.141-0.344-0.344-0.344-0.094 0-0.187 0.031-0.266 0.109l-8.469 8.469c-0.078 0.078-0.109 0.172-0.109 0.266 0 0.203 0.141 0.344 0.344 0.344 0.094 0 0.187-0.031 0.266-0.109l8.469-8.469c0.078-0.078 0.109-0.172 0.109-0.266zM13 6.5l6.5 6.5-13 13h-6.5v-6.5zM23.672 8c0 0.531-0.219 1.047-0.578 1.406l-2.594 2.594-6.5-6.5 2.594-2.578c0.359-0.375 0.875-0.594 1.406-0.594s1.047 0.219 1.422 0.594l3.672 3.656c0.359 0.375 0.578 0.891 0.578 1.422z"></path>
</symbol>
<symbol id="icon-edit" viewBox="0 0 28 28">
<title>edit</title>
<path d="M13.875 18.5l1.813-1.813-2.375-2.375-1.813 1.813v0.875h1.5v1.5h0.875zM20.75 7.25c-0.141-0.141-0.375-0.125-0.516 0.016l-5.469 5.469c-0.141 0.141-0.156 0.375-0.016 0.516s0.375 0.125 0.516-0.016l5.469-5.469c0.141-0.141 0.156-0.375 0.016-0.516zM22 16.531v2.969c0 2.484-2.016 4.5-4.5 4.5h-13c-2.484 0-4.5-2.016-4.5-4.5v-13c0-2.484 2.016-4.5 4.5-4.5h13c0.625 0 1.25 0.125 1.828 0.391 0.141 0.063 0.25 0.203 0.281 0.359 0.031 0.172-0.016 0.328-0.141 0.453l-0.766 0.766c-0.141 0.141-0.328 0.187-0.5 0.125-0.234-0.063-0.469-0.094-0.703-0.094h-13c-1.375 0-2.5 1.125-2.5 2.5v13c0 1.375 1.125 2.5 2.5 2.5h13c1.375 0 2.5-1.125 2.5-2.5v-1.969c0-0.125 0.047-0.25 0.141-0.344l1-1c0.156-0.156 0.359-0.187 0.547-0.109s0.313 0.25 0.313 0.453zM20.5 5l4.5 4.5-10.5 10.5h-4.5v-4.5zM27.438 7.063l-1.437 1.437-4.5-4.5 1.437-1.437c0.578-0.578 1.547-0.578 2.125 0l2.375 2.375c0.578 0.578 0.578 1.547 0 2.125z"></path>
</symbol>
<symbol id="icon-share-square-o" viewBox="0 0 26 28">
<title>share-square-o</title>
<path d="M22 15.453v4.047c0 2.484-2.016 4.5-4.5 4.5h-13c-2.484 0-4.5-2.016-4.5-4.5v-13c0-2.484 2.016-4.5 4.5-4.5h3.984c0.266 0 0.5 0.219 0.5 0.5 0 0.25-0.172 0.453-0.406 0.5-0.781 0.266-1.484 0.578-2.078 0.938-0.078 0.031-0.156 0.063-0.25 0.063h-1.75c-1.375 0-2.5 1.125-2.5 2.5v13c0 1.375 1.125 2.5 2.5 2.5h13c1.375 0 2.5-1.125 2.5-2.5v-3.344c0-0.187 0.109-0.359 0.281-0.453 0.313-0.141 0.594-0.344 0.844-0.578 0.141-0.141 0.359-0.203 0.547-0.125s0.328 0.25 0.328 0.453zM25.703 7.703l-6 6c-0.187 0.203-0.438 0.297-0.703 0.297-0.125 0-0.266-0.031-0.391-0.078-0.359-0.156-0.609-0.516-0.609-0.922v-3h-2.5c-3.437 0-5.625 0.656-6.844 2.047-1.266 1.453-1.641 3.797-1.156 7.391 0.031 0.219-0.109 0.438-0.313 0.531-0.063 0.016-0.125 0.031-0.187 0.031-0.156 0-0.313-0.078-0.406-0.203-0.109-0.156-2.594-3.672-2.594-6.797 0-4.188 1.313-9 11.5-9h2.5v-3c0-0.406 0.25-0.766 0.609-0.922 0.125-0.047 0.266-0.078 0.391-0.078 0.266 0 0.516 0.109 0.703 0.297l6 6c0.391 0.391 0.391 1.016 0 1.406z"></path>
</symbol>
<symbol id="icon-times-circle" viewBox="0 0 24 28">
<title>times-circle</title>
<path d="M17.953 17.531c0-0.266-0.109-0.516-0.297-0.703l-2.828-2.828 2.828-2.828c0.187-0.187 0.297-0.438 0.297-0.703s-0.109-0.531-0.297-0.719l-1.406-1.406c-0.187-0.187-0.453-0.297-0.719-0.297s-0.516 0.109-0.703 0.297l-2.828 2.828-2.828-2.828c-0.187-0.187-0.438-0.297-0.703-0.297s-0.531 0.109-0.719 0.297l-1.406 1.406c-0.187 0.187-0.297 0.453-0.297 0.719s0.109 0.516 0.297 0.703l2.828 2.828-2.828 2.828c-0.187 0.187-0.297 0.438-0.297 0.703s0.109 0.531 0.297 0.719l1.406 1.406c0.187 0.187 0.453 0.297 0.719 0.297s0.516-0.109 0.703-0.297l2.828-2.828 2.828 2.828c0.187 0.187 0.438 0.297 0.703 0.297s0.531-0.109 0.719-0.297l1.406-1.406c0.187-0.187 0.297-0.453 0.297-0.719zM24 14c0 6.625-5.375 12-12 12s-12-5.375-12-12 5.375-12 12-12 12 5.375 12 12z"></path>
</symbol>
<symbol id="icon-check-circle" viewBox="0 0 24 28">
<title>check-circle</title>
<path d="M20.062 11.469c0-0.266-0.094-0.531-0.281-0.719l-1.422-1.406c-0.187-0.187-0.438-0.297-0.703-0.297s-0.516 0.109-0.703 0.297l-6.375 6.359-3.531-3.531c-0.187-0.187-0.438-0.297-0.703-0.297s-0.516 0.109-0.703 0.297l-1.422 1.406c-0.187 0.187-0.281 0.453-0.281 0.719s0.094 0.516 0.281 0.703l5.656 5.656c0.187 0.187 0.453 0.297 0.703 0.297 0.266 0 0.531-0.109 0.719-0.297l8.484-8.484c0.187-0.187 0.281-0.438 0.281-0.703zM24 14c0 6.625-5.375 12-12 12s-12-5.375-12-12 5.375-12 12-12 12 5.375 12 12z"></path>
</symbol>
<symbol id="icon-gift" viewBox="0 0 24 28">
<title>gift</title>
<path d="M14.5 21.187v-11.188h-5v11.188c0 0.547 0.453 0.812 1 0.812h3c0.547 0 1-0.266 1-0.812zM7.375 8h3.047l-1.969-2.516c-0.172-0.203-0.547-0.484-1.078-0.484-0.828 0-1.5 0.672-1.5 1.5s0.672 1.5 1.5 1.5zM18.125 6.5c0-0.828-0.672-1.5-1.5-1.5-0.531 0-0.906 0.281-1.078 0.484l-1.953 2.516h3.031c0.828 0 1.5-0.672 1.5-1.5zM24 10.5v5c0 0.281-0.219 0.5-0.5 0.5h-1.5v6.5c0 0.828-0.672 1.5-1.5 1.5h-17c-0.828 0-1.5-0.672-1.5-1.5v-6.5h-1.5c-0.281 0-0.5-0.219-0.5-0.5v-5c0-0.281 0.219-0.5 0.5-0.5h6.875c-1.937 0-3.5-1.563-3.5-3.5s1.563-3.5 3.5-3.5c1.047 0 2.016 0.438 2.625 1.203l2 2.578 2-2.578c0.609-0.766 1.578-1.203 2.625-1.203 1.937 0 3.5 1.563 3.5 3.5s-1.563 3.5-3.5 3.5h6.875c0.281 0 0.5 0.219 0.5 0.5z"></path>
</symbol>
<symbol id="icon-eye" viewBox="0 0 28 28">
<title>eye</title>
<path d="M26 15c-1.484-2.297-3.516-4.266-5.953-5.516 0.625 1.062 0.953 2.281 0.953 3.516 0 3.859-3.141 7-7 7s-7-3.141-7-7c0-1.234 0.328-2.453 0.953-3.516-2.438 1.25-4.469 3.219-5.953 5.516 2.672 4.125 6.984 7 12 7s9.328-2.875 12-7zM14.75 9c0-0.406-0.344-0.75-0.75-0.75-2.609 0-4.75 2.141-4.75 4.75 0 0.406 0.344 0.75 0.75 0.75s0.75-0.344 0.75-0.75c0-1.781 1.469-3.25 3.25-3.25 0.406 0 0.75-0.344 0.75-0.75zM28 15c0 0.391-0.125 0.75-0.313 1.078-2.875 4.734-8.141 7.922-13.687 7.922s-10.813-3.203-13.687-7.922c-0.187-0.328-0.313-0.688-0.313-1.078s0.125-0.75 0.313-1.078c2.875-4.719 8.141-7.922 13.687-7.922s10.813 3.203 13.687 7.922c0.187 0.328 0.313 0.688 0.313 1.078z"></path>
</symbol>
<symbol id="icon-eye-slash" viewBox="0 0 28 28">
<title>eye-slash</title>
<path d="M8.672 20.859l1.219-2.203c-1.813-1.313-2.891-3.422-2.891-5.656 0-1.234 0.328-2.453 0.953-3.516-2.438 1.25-4.469 3.219-5.953 5.516 1.625 2.516 3.922 4.625 6.672 5.859zM14.75 9c0-0.406-0.344-0.75-0.75-0.75-2.609 0-4.75 2.141-4.75 4.75 0 0.406 0.344 0.75 0.75 0.75s0.75-0.344 0.75-0.75c0-1.797 1.469-3.25 3.25-3.25 0.406 0 0.75-0.344 0.75-0.75zM20.422 6.016c0 0.031 0 0.109-0.016 0.141-3.297 5.891-6.563 11.813-9.859 17.703l-0.766 1.391c-0.094 0.156-0.266 0.25-0.438 0.25-0.281 0-1.766-0.906-2.094-1.094-0.156-0.094-0.25-0.25-0.25-0.438 0-0.25 0.531-1.094 0.688-1.359-3.031-1.375-5.578-3.719-7.375-6.531-0.203-0.313-0.313-0.688-0.313-1.078 0-0.375 0.109-0.766 0.313-1.078 3.094-4.75 7.922-7.922 13.687-7.922 0.938 0 1.891 0.094 2.812 0.266l0.844-1.516c0.094-0.156 0.25-0.25 0.438-0.25 0.281 0 1.75 0.906 2.078 1.094 0.156 0.094 0.25 0.25 0.25 0.422zM21 13c0 2.906-1.797 5.5-4.5 6.531l4.375-7.844c0.078 0.438 0.125 0.875 0.125 1.313zM28 15c0 0.406-0.109 0.734-0.313 1.078-0.484 0.797-1.094 1.563-1.703 2.266-3.063 3.516-7.281 5.656-11.984 5.656l1.156-2.063c4.547-0.391 8.406-3.156 10.844-6.937-1.156-1.797-2.641-3.375-4.406-4.594l0.984-1.75c1.937 1.297 3.891 3.25 5.109 5.266 0.203 0.344 0.313 0.672 0.313 1.078z"></path>
</symbol>
<symbol id="icon-heart-o" viewBox="0 0 28 28">
<title>heart-o</title>
<path d="M26 9.312c0-4.391-2.969-5.313-5.469-5.313-2.328 0-4.953 2.516-5.766 3.484-0.375 0.453-1.156 0.453-1.531 0-0.812-0.969-3.437-3.484-5.766-3.484-2.5 0-5.469 0.922-5.469 5.313 0 2.859 2.891 5.516 2.922 5.547l9.078 8.75 9.063-8.734c0.047-0.047 2.938-2.703 2.938-5.563zM28 9.312c0 3.75-3.437 6.891-3.578 7.031l-9.734 9.375c-0.187 0.187-0.438 0.281-0.688 0.281s-0.5-0.094-0.688-0.281l-9.75-9.406c-0.125-0.109-3.563-3.25-3.563-7 0-4.578 2.797-7.313 7.469-7.313 2.734 0 5.297 2.156 6.531 3.375 1.234-1.219 3.797-3.375 6.531-3.375 4.672 0 7.469 2.734 7.469 7.313z"></path>
</symbol>
<symbol id="icon-group" viewBox="0 0 30 28">
<title>group</title>
<path d="M9.266 14c-1.625 0.047-3.094 0.75-4.141 2h-2.094c-1.563 0-3.031-0.75-3.031-2.484 0-1.266-0.047-5.516 1.937-5.516 0.328 0 1.953 1.328 4.062 1.328 0.719 0 1.406-0.125 2.078-0.359-0.047 0.344-0.078 0.688-0.078 1.031 0 1.422 0.453 2.828 1.266 4zM26 23.953c0 2.531-1.672 4.047-4.172 4.047h-13.656c-2.5 0-4.172-1.516-4.172-4.047 0-3.531 0.828-8.953 5.406-8.953 0.531 0 2.469 2.172 5.594 2.172s5.063-2.172 5.594-2.172c4.578 0 5.406 5.422 5.406 8.953zM10 4c0 2.203-1.797 4-4 4s-4-1.797-4-4 1.797-4 4-4 4 1.797 4 4zM21 10c0 3.313-2.688 6-6 6s-6-2.688-6-6 2.688-6 6-6 6 2.688 6 6zM30 13.516c0 1.734-1.469 2.484-3.031 2.484h-2.094c-1.047-1.25-2.516-1.953-4.141-2 0.812-1.172 1.266-2.578 1.266-4 0-0.344-0.031-0.688-0.078-1.031 0.672 0.234 1.359 0.359 2.078 0.359 2.109 0 3.734-1.328 4.062-1.328 1.984 0 1.937 4.25 1.937 5.516zM28 4c0 2.203-1.797 4-4 4s-4-1.797-4-4 1.797-4 4-4 4 1.797 4 4z"></path>
</symbol>
<symbol id="icon-angle-double-left" viewBox="0 0 17 28">
<title>angle-double-left</title>
<path d="M9.797 21.5c0 0.125-0.063 0.266-0.156 0.359l-0.781 0.781c-0.094 0.094-0.234 0.156-0.359 0.156s-0.266-0.063-0.359-0.156l-7.281-7.281c-0.094-0.094-0.156-0.234-0.156-0.359s0.063-0.266 0.156-0.359l7.281-7.281c0.094-0.094 0.234-0.156 0.359-0.156s0.266 0.063 0.359 0.156l0.781 0.781c0.094 0.094 0.156 0.234 0.156 0.359s-0.063 0.266-0.156 0.359l-6.141 6.141 6.141 6.141c0.094 0.094 0.156 0.234 0.156 0.359zM15.797 21.5c0 0.125-0.063 0.266-0.156 0.359l-0.781 0.781c-0.094 0.094-0.234 0.156-0.359 0.156s-0.266-0.063-0.359-0.156l-7.281-7.281c-0.094-0.094-0.156-0.234-0.156-0.359s0.063-0.266 0.156-0.359l7.281-7.281c0.094-0.094 0.234-0.156 0.359-0.156s0.266 0.063 0.359 0.156l0.781 0.781c0.094 0.094 0.156 0.234 0.156 0.359s-0.063 0.266-0.156 0.359l-6.141 6.141 6.141 6.141c0.094 0.094 0.156 0.234 0.156 0.359z"></path>
</symbol>
<symbol id="icon-angle-double-right" viewBox="0 0 15 28">
<title>angle-double-right</title>
<path d="M9.297 15c0 0.125-0.063 0.266-0.156 0.359l-7.281 7.281c-0.094 0.094-0.234 0.156-0.359 0.156s-0.266-0.063-0.359-0.156l-0.781-0.781c-0.094-0.094-0.156-0.234-0.156-0.359s0.063-0.266 0.156-0.359l6.141-6.141-6.141-6.141c-0.094-0.094-0.156-0.234-0.156-0.359s0.063-0.266 0.156-0.359l0.781-0.781c0.094-0.094 0.234-0.156 0.359-0.156s0.266 0.063 0.359 0.156l7.281 7.281c0.094 0.094 0.156 0.234 0.156 0.359zM15.297 15c0 0.125-0.063 0.266-0.156 0.359l-7.281 7.281c-0.094 0.094-0.234 0.156-0.359 0.156s-0.266-0.063-0.359-0.156l-0.781-0.781c-0.094-0.094-0.156-0.234-0.156-0.359s0.063-0.266 0.156-0.359l6.141-6.141-6.141-6.141c-0.094-0.094-0.156-0.234-0.156-0.359s0.063-0.266 0.156-0.359l0.781-0.781c0.094-0.094 0.234-0.156 0.359-0.156s0.266 0.063 0.359 0.156l7.281 7.281c0.094 0.094 0.156 0.234 0.156 0.359z"></path>
</symbol>
<symbol id="icon-angle-double-up" viewBox="0 0 18 28">
<title>angle-double-up</title>
<path d="M16.797 20.5c0 0.125-0.063 0.266-0.156 0.359l-0.781 0.781c-0.094 0.094-0.219 0.156-0.359 0.156-0.125 0-0.266-0.063-0.359-0.156l-6.141-6.141-6.141 6.141c-0.094 0.094-0.234 0.156-0.359 0.156s-0.266-0.063-0.359-0.156l-0.781-0.781c-0.094-0.094-0.156-0.234-0.156-0.359s0.063-0.266 0.156-0.359l7.281-7.281c0.094-0.094 0.234-0.156 0.359-0.156s0.266 0.063 0.359 0.156l7.281 7.281c0.094 0.094 0.156 0.234 0.156 0.359zM16.797 14.5c0 0.125-0.063 0.266-0.156 0.359l-0.781 0.781c-0.094 0.094-0.219 0.156-0.359 0.156-0.125 0-0.266-0.063-0.359-0.156l-6.141-6.141-6.141 6.141c-0.094 0.094-0.234 0.156-0.359 0.156s-0.266-0.063-0.359-0.156l-0.781-0.781c-0.094-0.094-0.156-0.234-0.156-0.359s0.063-0.266 0.156-0.359l7.281-7.281c0.094-0.094 0.234-0.156 0.359-0.156s0.266 0.063 0.359 0.156l7.281 7.281c0.094 0.094 0.156 0.234 0.156 0.359z"></path>
</symbol>
<symbol id="icon-angle-double-down" viewBox="0 0 18 28">
<title>angle-double-down</title>
<path d="M16.797 13.5c0 0.125-0.063 0.266-0.156 0.359l-7.281 7.281c-0.094 0.094-0.234 0.156-0.359 0.156s-0.266-0.063-0.359-0.156l-7.281-7.281c-0.094-0.094-0.156-0.234-0.156-0.359s0.063-0.266 0.156-0.359l0.781-0.781c0.094-0.094 0.219-0.156 0.359-0.156 0.125 0 0.266 0.063 0.359 0.156l6.141 6.141 6.141-6.141c0.094-0.094 0.234-0.156 0.359-0.156s0.266 0.063 0.359 0.156l0.781 0.781c0.094 0.094 0.156 0.234 0.156 0.359zM16.797 7.5c0 0.125-0.063 0.266-0.156 0.359l-7.281 7.281c-0.094 0.094-0.234 0.156-0.359 0.156s-0.266-0.063-0.359-0.156l-7.281-7.281c-0.094-0.094-0.156-0.234-0.156-0.359s0.063-0.266 0.156-0.359l0.781-0.781c0.094-0.094 0.219-0.156 0.359-0.156 0.125 0 0.266 0.063 0.359 0.156l6.141 6.141 6.141-6.141c0.094-0.094 0.234-0.156 0.359-0.156s0.266 0.063 0.359 0.156l0.781 0.781c0.094 0.094 0.156 0.234 0.156 0.359z"></path>
</symbol>
<symbol id="icon-angle-left" viewBox="0 0 11 28">
<title>angle-left</title>
<path d="M9.797 8.5c0 0.125-0.063 0.266-0.156 0.359l-6.141 6.141 6.141 6.141c0.094 0.094 0.156 0.234 0.156 0.359s-0.063 0.266-0.156 0.359l-0.781 0.781c-0.094 0.094-0.234 0.156-0.359 0.156s-0.266-0.063-0.359-0.156l-7.281-7.281c-0.094-0.094-0.156-0.234-0.156-0.359s0.063-0.266 0.156-0.359l7.281-7.281c0.094-0.094 0.234-0.156 0.359-0.156s0.266 0.063 0.359 0.156l0.781 0.781c0.094 0.094 0.156 0.219 0.156 0.359z"></path>
</symbol>
<symbol id="icon-angle-right" viewBox="0 0 9 28">
<title>angle-right</title>
<path d="M9.297 15c0 0.125-0.063 0.266-0.156 0.359l-7.281 7.281c-0.094 0.094-0.234 0.156-0.359 0.156s-0.266-0.063-0.359-0.156l-0.781-0.781c-0.094-0.094-0.156-0.219-0.156-0.359 0-0.125 0.063-0.266 0.156-0.359l6.141-6.141-6.141-6.141c-0.094-0.094-0.156-0.234-0.156-0.359s0.063-0.266 0.156-0.359l0.781-0.781c0.094-0.094 0.234-0.156 0.359-0.156s0.266 0.063 0.359 0.156l7.281 7.281c0.094 0.094 0.156 0.234 0.156 0.359z"></path>
</symbol>
<symbol id="icon-angle-up" viewBox="0 0 18 28">
<title>angle-up</title>
<path d="M16.797 18.5c0 0.125-0.063 0.266-0.156 0.359l-0.781 0.781c-0.094 0.094-0.219 0.156-0.359 0.156-0.125 0-0.266-0.063-0.359-0.156l-6.141-6.141-6.141 6.141c-0.094 0.094-0.234 0.156-0.359 0.156s-0.266-0.063-0.359-0.156l-0.781-0.781c-0.094-0.094-0.156-0.234-0.156-0.359s0.063-0.266 0.156-0.359l7.281-7.281c0.094-0.094 0.234-0.156 0.359-0.156s0.266 0.063 0.359 0.156l7.281 7.281c0.094 0.094 0.156 0.234 0.156 0.359z"></path>
</symbol>
<symbol id="icon-angle-down" viewBox="0 0 18 28">
<title>angle-down</title>
<path d="M16.797 11.5c0 0.125-0.063 0.266-0.156 0.359l-7.281 7.281c-0.094 0.094-0.234 0.156-0.359 0.156s-0.266-0.063-0.359-0.156l-7.281-7.281c-0.094-0.094-0.156-0.234-0.156-0.359s0.063-0.266 0.156-0.359l0.781-0.781c0.094-0.094 0.219-0.156 0.359-0.156 0.125 0 0.266 0.063 0.359 0.156l6.141 6.141 6.141-6.141c0.094-0.094 0.234-0.156 0.359-0.156s0.266 0.063 0.359 0.156l0.781 0.781c0.094 0.094 0.156 0.234 0.156 0.359z"></path>
</symbol>
<symbol id="icon-star-half-empty" viewBox="0 0 26 28">
<title>star-half-empty</title>
<path d="M18.531 14.953l4.016-3.906-6.594-0.969-0.469-0.938-2.484-5.031v15.047l0.922 0.484 4.969 2.625-0.938-5.547-0.187-1.031zM25.594 10.859l-5.672 5.531 1.344 7.812c0.109 0.688-0.141 1.094-0.625 1.094-0.172 0-0.391-0.063-0.625-0.187l-7.016-3.687-7.016 3.687c-0.234 0.125-0.453 0.187-0.625 0.187-0.484 0-0.734-0.406-0.625-1.094l1.344-7.812-5.688-5.531c-0.672-0.672-0.453-1.328 0.484-1.469l7.844-1.141 3.516-7.109c0.203-0.422 0.484-0.641 0.766-0.641v0c0.281 0 0.547 0.219 0.766 0.641l3.516 7.109 7.844 1.141c0.938 0.141 1.156 0.797 0.469 1.469z"></path>
</symbol>
<symbol id="icon-bug" viewBox="0 0 26 28">
<title>bug</title>
<path d="M25.5 15c0 0.547-0.453 1-1 1h-3.5c0 1.953-0.422 3.422-1.047 4.531l3.25 3.266c0.391 0.391 0.391 1.016 0 1.406-0.187 0.203-0.453 0.297-0.703 0.297s-0.516-0.094-0.703-0.297l-3.094-3.078s-2.047 1.875-4.703 1.875v-14h-2v14c-2.828 0-4.891-2.063-4.891-2.063l-2.859 3.234c-0.203 0.219-0.469 0.328-0.75 0.328-0.234 0-0.469-0.078-0.672-0.25-0.406-0.375-0.438-1-0.078-1.422l3.156-3.547c-0.547-1.078-0.906-2.469-0.906-4.281h-3.5c-0.547 0-1-0.453-1-1s0.453-1 1-1h3.5v-4.594l-2.703-2.703c-0.391-0.391-0.391-1.016 0-1.406s1.016-0.391 1.406 0l2.703 2.703h13.188l2.703-2.703c0.391-0.391 1.016-0.391 1.406 0s0.391 1.016 0 1.406l-2.703 2.703v4.594h3.5c0.547 0 1 0.453 1 1zM18 6h-10c0-2.766 2.234-5 5-5s5 2.234 5 5z"></path>
</symbol>
<symbol id="icon-sliders" viewBox="0 0 24 28">
<title>sliders</title>
<path d="M5.5 22v2h-5.5v-2h5.5zM11 20c0.547 0 1 0.453 1 1v4c0 0.547-0.453 1-1 1h-4c-0.547 0-1-0.453-1-1v-4c0-0.547 0.453-1 1-1h4zM13.5 14v2h-13.5v-2h13.5zM3.5 6v2h-3.5v-2h3.5zM24 22v2h-11.5v-2h11.5zM9 4c0.547 0 1 0.453 1 1v4c0 0.547-0.453 1-1 1h-4c-0.547 0-1-0.453-1-1v-4c0-0.547 0.453-1 1-1h4zM19 12c0.547 0 1 0.453 1 1v4c0 0.547-0.453 1-1 1h-4c-0.547 0-1-0.453-1-1v-4c0-0.547 0.453-1 1-1h4zM24 14v2h-3.5v-2h3.5zM24 6v2h-13.5v-2h13.5z"></path>
</symbol>
<symbol id="icon-bomb" viewBox="0 0 28 28">
<title>bomb</title>
<path d="M8.922 9.203c-0.203-0.516-0.781-0.75-1.297-0.547-2.25 0.906-4.062 2.719-4.969 4.969-0.203 0.516 0.031 1.094 0.547 1.297 0.125 0.047 0.25 0.078 0.375 0.078 0.406 0 0.766-0.234 0.938-0.625 0.703-1.75 2.109-3.156 3.859-3.859 0.516-0.219 0.766-0.797 0.547-1.313zM23.641 3.641l0.719 0.719-3.813 3.797 1.062 1.062c0.391 0.391 0.391 1.031 0 1.422l-1 1c0.875 1.578 1.391 3.406 1.391 5.359 0 6.078-4.922 11-11 11s-11-4.922-11-11 4.922-11 11-11c1.953 0 3.781 0.516 5.359 1.391l1-1c0.391-0.391 1.031-0.391 1.422 0l1.062 1.062zM23.766 2.766c-0.094 0.094-0.219 0.156-0.344 0.156-0.141 0-0.266-0.063-0.359-0.156l-1.422-1.406c-0.187-0.203-0.187-0.516 0-0.719 0.203-0.187 0.516-0.187 0.719 0l1.406 1.422c0.203 0.187 0.203 0.516 0 0.703zM27.359 6.359c-0.109 0.094-0.234 0.141-0.359 0.141s-0.25-0.047-0.359-0.141l-1.406-1.422c-0.203-0.187-0.203-0.516 0-0.703 0.187-0.203 0.516-0.203 0.703 0l1.422 1.406c0.187 0.203 0.187 0.516 0 0.719zM28 3.5c0 0.281-0.219 0.5-0.5 0.5h-1.5c-0.281 0-0.5-0.219-0.5-0.5s0.219-0.5 0.5-0.5h1.5c0.281 0 0.5 0.219 0.5 0.5zM25 0.5v1.5c0 0.281-0.219 0.5-0.5 0.5s-0.5-0.219-0.5-0.5v-1.5c0-0.281 0.219-0.5 0.5-0.5s0.5 0.219 0.5 0.5zM27.359 1.359l-1.422 1.406c-0.094 0.094-0.219 0.156-0.344 0.156-0.141 0-0.266-0.063-0.359-0.156-0.203-0.187-0.203-0.516 0-0.703l1.406-1.422c0.203-0.187 0.516-0.187 0.719 0 0.187 0.203 0.187 0.516 0 0.719z"></path>
</symbol>
<symbol id="icon-low-vision" viewBox="0 0 28 28">
<title>low-vision</title>
<path d="M5.234 21.187c-0.031 0-0.063-0.016-0.094-0.031-1.828-1.219-3.656-3.219-4.813-5.078-0.219-0.313-0.328-0.688-0.328-1.078 0-0.812 0.562-1.469 1.016-2.078 1.813-2.469 4.234-4.5 7.063-5.703-0.234-0.422-1.719-3.016-1.719-3.297 0-0.187 0.109-0.359 0.266-0.453 0.313-0.172 1.719-1 2-1 0.172 0 0.344 0.094 0.438 0.25l1.937 3.578c0.984-0.203 2-0.297 3-0.297 5.656 0 10.687 3.203 13.687 7.922 0.203 0.313 0.313 0.688 0.313 1.078s-0.109 0.766-0.313 1.078c-1.859 2.922-4.578 5.344-7.766 6.703 0.234 0.422 1.719 3.016 1.719 3.297 0 0.187-0.094 0.359-0.266 0.453-0.313 0.172-1.719 1-1.984 1-0.187 0-0.359-0.094-0.453-0.25l-1.937-3.578-1-1.859-6.937-12.812 0.109-0.109c-0.531 0.219-1.047 0.453-1.547 0.734 0.187 0.359 7.641 14.047 7.641 14.156 0 0.078-0.063 0.125-0.141 0.141-0.344 0.078-0.781 0.047-1.125 0.047-0.172 0-0.875 0.031-0.938-0.109l-7.125-13.141c-0.453 0.328-0.875 0.688-1.281 1.062 0.344 0.609 6.312 11.594 6.312 11.688 0 0.125-0.078 0.156-0.172 0.156-0.266 0-2.344-0.641-2.422-0.781l-1.656-3.078-3.5-6.453c-0.438 0.531-0.844 1.078-1.219 1.656 0.203 0.297 0.469 0.609 0.641 0.922 0.219 0.406 2.75 5.016 2.75 5.109 0 0.078-0.078 0.156-0.156 0.156zM18.203 19.594l0.766 1.422c2.922-1.188 5.328-3.375 7.031-6.016-1.734-2.672-4.203-4.891-7.172-6.078 1.391 1.328 2.172 3.156 2.172 5.078 0 2.203-1.031 4.281-2.797 5.594zM13.25 10c0 0.406 0.344 0.75 0.75 0.75 0.859 0 1.687 0.344 2.297 0.953s0.953 1.437 0.953 2.297c0 0.406 0.344 0.75 0.75 0.75s0.75-0.344 0.75-0.75c0-2.625-2.125-4.75-4.75-4.75-0.406 0-0.75 0.344-0.75 0.75zM18.969 8.984l-0.141-0.063 0.109 0.109z"></path>
</symbol>
<symbol id="icon-user-circle" viewBox="0 0 28 28">
<title>user-circle</title>
<path d="M23.797 20.922c-0.406-2.922-1.594-5.516-4.25-5.875-1.375 1.5-3.359 2.453-5.547 2.453s-4.172-0.953-5.547-2.453c-2.656 0.359-3.844 2.953-4.25 5.875 2.172 3.063 5.75 5.078 9.797 5.078s7.625-2.016 9.797-5.078zM20 10c0-3.313-2.688-6-6-6s-6 2.688-6 6 2.688 6 6 6 6-2.688 6-6zM28 14c0 7.703-6.25 14-14 14-7.734 0-14-6.281-14-14 0-7.734 6.266-14 14-14s14 6.266 14 14z"></path>
</symbol>
<symbol id="icon-user-circle-o" viewBox="0 0 28 28">
<title>user-circle-o</title>
<path d="M14 0c7.734 0 14 6.266 14 14 0 7.688-6.234 14-14 14-7.75 0-14-6.297-14-14 0-7.734 6.266-14 14-14zM23.672 21.109c1.453-2 2.328-4.453 2.328-7.109 0-6.609-5.391-12-12-12s-12 5.391-12 12c0 2.656 0.875 5.109 2.328 7.109 0.562-2.797 1.922-5.109 4.781-5.109 1.266 1.234 2.984 2 4.891 2s3.625-0.766 4.891-2c2.859 0 4.219 2.312 4.781 5.109zM20 11c0-3.313-2.688-6-6-6s-6 2.688-6 6 2.688 6 6 6 6-2.688 6-6z"></path>
</symbol>
<symbol id="icon-user-o" viewBox="0 0 24 28">
<title>user-o</title>
<path d="M18.766 12.25c2.203 0.641 5.234 2.812 5.234 9.922 0 3.219-2.391 5.828-5.328 5.828h-13.344c-2.938 0-5.328-2.609-5.328-5.828 0-7.109 3.031-9.281 5.234-9.922-0.781-1.234-1.234-2.688-1.234-4.25 0-4.406 3.594-8 8-8s8 3.594 8 8c0 1.563-0.453 3.016-1.234 4.25zM12 2c-3.313 0-6 2.688-6 6s2.688 6 6 6 6-2.688 6-6-2.688-6-6-6zM18.672 26c1.828 0 3.328-1.703 3.328-3.828 0-4.922-1.656-8-4.75-8.156-1.406 1.234-3.234 1.984-5.25 1.984s-3.844-0.75-5.25-1.984c-3.094 0.156-4.75 3.234-4.75 8.156 0 2.125 1.5 3.828 3.328 3.828h13.344z"></path>
</symbol>
</defs>
</svg>
